<svg id="Capa_1" enable-background="new 0 0 510 510" height="512" viewBox="0 0 510 510" width="512" xmlns="http://www.w3.org/2000/svg"><g id="XMLID_2346_"><path id="XMLID_5270_" d="m195 422.562 7.5 12.427 7.5-15 6-45-6-45-7.5-15-7.5 13.493z" fill="#e0dde8"/><path id="XMLID_5268_" d="m195 181.497 7.5 13.492c5.246-10.492 9.754-19.508 15-30-5.246-10.492-9.754-19.508-15-30l-7.5 12.429z" fill="#e0dde8"/><path id="XMLID_2882_" d="m225 181.496c0-11.991 0-22.24 0-34.082l-7.5-12.425-7.5 15v30l7.5 15z" fill="#ceccdb"/><path id="XMLID_2887_" d="m225 422.564c0-11.571 0-82.829 0-94.081l-7.5-13.493-7.5 15v90l7.5 15z" fill="#ceccdb"/><path id="XMLID_5244_" d="m165 104.989c0 24.811 20.186 45 45 45l15-45-15-45c-24.812 0-45 20.185-45 45z" fill="#98e53b"/><path id="XMLID_5245_" d="m165 464.989c0 24.812 20.185 45 45 45l15-45-15-45c-24.813 0-45 20.185-45 45z" fill="#ff9000"/><g fill="#e0dde8"><path id="XMLID_3886_" d="m136.509 239.989c-15.264 0-33.298 0-49.089 0l-9.92 15 9.92 15h49.089l8.491-15z"/><path id="XMLID_5106_" d="m147.457 296.319c-9.228 9.228-73.597 73.597-83.068 83.068l5.861 16.102 15.352 5.112c9.465-9.466 73.849-73.85 83.069-83.07l-6.671-15.542z"/><path id="XMLID_5107_" d="m168.67 192.447c-9.701-9.701-73.073-73.073-83.069-83.069l-16.352 2.861-4.858 18.354c10.19 10.19 73.059 73.06 83.065 83.066l17.544-3.67z"/></g><circle id="XMLID_5261_" cx="45" cy="254.989" fill="#ffd92e" r="45"/><path id="XMLID_5263_" d="m45 375.01c-24.877 0-44.979 20.088-44.979 44.979 0 24.922 20.137 44.979 44.979 44.979 11.935 0 23.331-4.67 31.82-13.159 8.772-8.772 13.158-20.296 13.158-31.819 0-24.824-20.065-44.98-44.978-44.98z" fill="#7995ff"/><path id="XMLID_5267_" d="m89.978 89.989c0-24.878-20.086-44.98-44.978-44.98-24.878.002-44.979 20.089-44.979 44.98 0 25.116 20.317 44.979 44.979 44.979 24.877 0 44.978-20.107 44.978-44.979z" fill="#ff9000"/><path id="XMLID_5274_" d="m225 254.989-15-75c-41.292 0-75 33.632-75 75 0 41.293 33.639 75 75 75z" fill="#516992"/><path id="XMLID_5108_" d="m422.58 239.989c-17.04 0-122.242 0-139.089 0l-9.491 15 9.491 15h139.089l11.753-15z" fill="#ceccdb"/><path id="XMLID_5109_" d="m272.542 213.66c7.121-7.121 120.98-120.98 128.066-128.066l-5.608-15.605-15.602-5.61c-6.808 6.808-120.961 120.961-128.069 128.068v17.542z" fill="#ceccdb"/><path id="XMLID_5111_" d="m251.329 317.531 53.069 53.069 17.935-4.611 3.279-16.601c-4.605-4.605-47.54-47.541-53.069-53.07l-17.543 3.671z" fill="#ceccdb"/><circle id="XMLID_5262_" cx="465" cy="254.989" fill="#27d072" r="45"/><path id="XMLID_5264_" d="m420 89.968c11.933 0 23.33-4.669 31.819-13.158v-.001c8.773-8.772 13.159-20.296 13.159-31.819 0-24.877-20.087-44.979-44.978-44.979-24.876 0-44.979 20.087-44.979 44.979 0 24.789 20.022 44.978 44.979 44.978z" fill="#3c68e8"/><path id="XMLID_5266_" d="m300.021 389.989c0 24.968 20.185 44.979 44.979 44.979 24.885 0 44.978-20.104 44.978-44.979 0-24.876-20.087-44.978-44.978-44.978-24.895.001-44.979 20.124-44.979 44.978z" fill="#fcbe00"/><path id="XMLID_5269_" d="m210 179.989v150c41.244 0 75-33.579 75-75 0-41.43-33.753-75-75-75z" fill="#344f79"/><path id="XMLID_3160_" d="m165 254.989c0 24.812 20.185 45 45 45l15-45-15-45c-24.812 0-45 20.185-45 45z" fill="#ffea94"/><path id="XMLID_2886_" d="m210 209.989v90c24.812 0 45-20.185 45-45 0-24.812-20.185-45-45-45z" fill="#ffd92e"/><path id="XMLID_3199_" d="m255 104.989c0-24.812-20.185-45-45-45v90c24.812 0 45-20.186 45-45z" fill="#27d072"/><path id="XMLID_3245_" d="m255 464.989c0-24.812-20.185-45-45-45v90c24.812 0 45-20.184 45-45z" fill="#ff4a4a"/></g></svg>